<svg xmlns="http://www.w3.org/2000/svg" height="48" viewBox="0 -960 960 960" width="48"><path d="M331.308-291.308h298.384v-378.384H331.308v378.384Zm58.384-58.384v-261.616h181.616v261.616H389.692Zm61.462-141.462h57.692v-57.692h-57.692v57.692Zm-253.46 364.153q-28.254 0-49.473-21.22-21.22-21.219-21.22-49.473v-564.612q0-28.254 21.22-49.473 21.219-21.22 49.473-21.22h564.612q28.254 0 49.473 21.22 21.22 21.219 21.22 49.473v564.612q0 28.254-21.22 49.473-21.219 21.22-49.473 21.22H197.694Zm0-58.384h564.612q4.616 0 8.463-3.846 3.846-3.847 3.846-8.463v-564.612q0-4.616-3.846-8.463-3.847-3.846-8.463-3.846H197.694q-4.616 0-8.463 3.846-3.846 3.847-3.846 8.463v564.612q0 4.616 3.846 8.463 3.847 3.846 8.463 3.846Zm-12.309-589.23V-185.385-774.615Z"/></svg>