<svg xmlns="http://www.w3.org/2000/svg" height="48" viewBox="0 -960 960 960" width="48"><path d="M197.694-127.001q-28.254 0-49.473-21.22-21.22-21.219-21.22-49.473v-564.612q0-28.254 21.22-49.473 21.219-21.22 49.473-21.22h564.612q28.254 0 49.473 21.22 21.22 21.219 21.22 49.473v564.612q0 28.254-21.22 49.473-21.219 21.22-49.473 21.22H197.694Zm0-58.384h564.612q4.616 0 8.463-3.846 3.846-3.847 3.846-8.463v-564.612q0-4.616-3.846-8.463-3.847-3.846-8.463-3.846H197.694q-4.616 0-8.463 3.846-3.846 3.847-3.846 8.463v564.612q0 4.616 3.846 8.463 3.847 3.846 8.463 3.846Zm60.462-94.385h447.765L568.23-463.307 446.385-307.231l-83.23-108.383L258.156-279.77Zm-72.771 94.385V-774.615-185.385Z"/></svg>